<?xml version="1.0" standalone="no"?>
<!DOCTYPE svg PUBLIC "-//W3C//DTD SVG 1.1//EN" "http://www.w3.org/Graphics/SVG/1.1/DTD/svg11.dtd">

<svg width="135" height="50" viewBox="0 0 135 50" preserveAspectRatio="none" 
  xmlns="http://www.w3.org/2000/svg"
  xmlns:xlink="http://www.w3.org/1999/xlink">


<polyline points="0.0, 21.941152268237577 0.8083832335329342, 19.664104815268367 1.6167664670658684, 20.608624736637573 2.4251497005988023, 12.810506300615282 3.2335329341317367, 20.679992449282008 4.041916167664671, 31.474855639522314 4.850299401197605, 35.468997746223664 5.658682634730539, 37.26847319717651 6.467065868263473, 37.895375344745204 7.275449101796408, 43.39771252022837 8.083832335329342, 42.58185735572964 8.892215568862277, 50.0 9.70059880239521, 42.14133894587781 10.508982035928144, 42.686831233403346 11.317365269461078, 39.73005281861678 12.125748502994012, 39.402415598941914 12.934131736526947, 40.88963994105278 13.74251497005988, 40.4962083661745 14.550898203592816, 39.91536187680962 15.359281437125748, 37.76487032146394 16.167664670658684, 36.21254304122795 16.976047904191617, 34.57992397474489 17.784431137724553, 33.89489642605769 18.592814371257486, 32.90933896498061 19.40119760479042, 34.243146557541195 20.20958083832335, 33.86246385087299 21.017964071856287, 33.838154445887206 21.82634730538922, 31.427610690041792 22.634730538922156, 32.01444557767121 23.443113772455092, 31.298009668333588 24.251497005988025, 29.472055198473807 25.059880239520957, 32.1194276257326 25.868263473053894, 35.16878030628888 26.676646706586826, 33.93351813674575 27.48502994011976, 32.38523361069372 28.29341317365269, 34.76433885530412 29.10179640718563, 36.8820824719346 29.910179640718564, 36.65676513945539 30.718562874251496, 34.95812881999809 31.526946107784433, 34.87613550213919 32.33532934131737, 33.82293687598662 33.1437125748503, 32.88199267601667 33.952095808383234, 32.573760318952985 34.76047904191616, 30.501009887163633 35.568862275449106, 32.461917094441766 36.377245508982035, 32.57504855309949 37.18562874251497, 30.74986305146804 37.9940119760479, 30.398536498616537 38.80239520958084, 30.482029433940443 39.61077844311377, 29.169700992521847 40.4191616766467, 30.159383819949188 41.227544910179645, 33.0572579585344 42.035928143712574, 31.88104069569079 42.84431137724551, 34.316009504911335 43.65269461077844, 37.56669299940876 44.461077844311376, 36.463584563614376 45.26946107784431, 31.737031063512045 46.07784431137725, 32.06270863460891 46.886227544910184, 32.93306437801393 47.69461077844311, 32.381921145055514 48.50299401197605, 31.184515773914214 49.31137724550898, 30.59266337960648 50.119760479041915, 28.041993767152196 50.928143712574844, 25.97912292678972 51.73652694610779, 25.728129479892864 52.54491017964072, 25.57822701878461 53.35329341317365, 26.226906547076208 54.16167664670659, 28.03681484004975 54.97005988023952, 29.698775481874794 55.778443113772454, 27.4912940209212 56.58682634730538, 25.909533731139618 57.395209580838326, 23.567101376903274 58.20359281437126, 24.516396362186903 59.01197604790419, 23.270425789200452 59.82035928143713, 23.957184764979207 60.62874251497006, 23.666542913458883 61.43712574850299, 20.74912341686565 62.24550898203593, 28.69822949738758 63.053892215568865, 24.375820986370435 63.862275449101794, 14.394400691461257 64.67065868263474, 14.356353143271097 65.47904191616766, 14.586954963954705 66.2874251497006, 9.193058957254012 67.09580838323353, 11.176642204579412 67.90419161676647, 6.692114491407954 68.7125748502994, 9.272045088136057 69.52095808383233, 10.202647529212234 70.32934131736526, 10.961085907786359 71.13772455089821, 11.953902389698902 71.94610778443113, 12.86782941722969 72.75449101796407, 14.363971430278744 73.562874251497, 14.082322973489578 74.37125748502994, 11.406024552632005 75.17964071856287, 12.347949722545861 75.9880239520958, 8.986627079868747 76.79640718562875, 10.583038980576626 77.60479041916167, 9.92238419838084 78.41317365269461, 9.518532074322355 79.22155688622755, 8.850284157452947 80.02994011976048, 9.236057890541586 80.8383233532934, 13.046879863630062 81.64670658682634, 11.823095758498653 82.45508982035929, 13.91418091894629 83.26347305389221, 11.571805902503705 84.07185628742515, 9.380642773573339 84.88023952095809, 5.447222131240062 85.68862275449102, 2.246421258948849 86.49700598802396, 5.161191594642357 87.30538922155688, 5.91487982891091 88.11377245508983, 4.469636808187512 88.92215568862275, 4.432872212133944 89.73053892215569, 5.086960456454247 90.53892215568862, 11.554901771728758 91.34730538922156, 10.995536556333331 92.1556886227545, 12.335537504086387 92.96407185628742, 14.847553049277945 93.77245508982037, 17.492279453981656 94.58083832335329, 15.607777746520753 95.38922155688623, 13.042148000897575 96.19760479041915, 16.11170623362041 97.0059880239521, 14.45514166626152 97.81437125748504, 16.390850044828447 98.62275449101796, 14.025322890722725 99.43113772455091, 13.39557051238461 100.23952095808383, 21.450129984591236 101.04790419161677, 21.19075472919005 101.85628742514969, 14.970823878215572 102.66467065868264, 9.352539146273251 103.47305389221557, 6.540170235061435 104.2814371257485, 8.359747048127508 105.08982035928145, 6.5954879097771215 105.89820359281437, 7.923673675975988 106.7065868263473, 9.256807570910857 107.51497005988023, 8.226566831624012 108.32335329341318, 9.076261727524772 109.13173652694611, 6.24091848055341 109.94011976047904, 3.798393489429374 110.74850299401199, 1.361011817278539 111.55688622754491, 1.8575480363591121 112.36526946107784, 3.683656791299075 113.17365269461077, 3.6591326101783395 113.98203592814372, 2.6991242494950383 114.79041916167665, 2.188054043127919 115.59880239520957, 3.1719566285352614 116.40718562874252, 4.057875727861521 117.21556886227545, 3.2069030427372436 118.02395209580838, 5.90087880362695 118.83233532934132, 6.183470495984742 119.64071856287426, 6.103677730082172 120.44910179640719, 8.020296196518471 121.25748502994011, 2.987334229570396 122.06586826347306, 0.610784515217267 122.87425149700599, 2.263941343403611 123.68263473053892, 0.0 124.49101796407186, 1.6705701020305732 125.2994011976048, 3.359976297417222 126.10778443113773, 1.1944878382286233 126.91616766467065, 0.9419457492302169 127.72455089820359, 1.9777369441689248 128.5329341317365, 1.2798995084012106 129.34131736526948, 2.2114375151973844 130.1497005988024, 3.5109647295862625 130.95808383233532, 3.5869879593416116 131.76646706586826, 2.9847860227712597 132.5748502994012, 4.711976377897136 133.38323353293413, 1.9035724719506102 134.19161676646706, 3.4547366936161064" fill="none" stroke="#32ca5b" stroke-width="1.25"/>

</svg>