<?xml version="1.0" standalone="no"?>
<!DOCTYPE svg PUBLIC "-//W3C//DTD SVG 1.1//EN" "http://www.w3.org/Graphics/SVG/1.1/DTD/svg11.dtd">

<svg width="135" height="50" viewBox="0 0 135 50" preserveAspectRatio="none" 
  xmlns="http://www.w3.org/2000/svg"
  xmlns:xlink="http://www.w3.org/1999/xlink">


<polyline points="0.0, 27.691877683993926 0.8083832335329342, 27.353091124428534 1.6167664670658684, 27.201457609608802 2.4251497005988023, 24.429771824385504 3.2335329341317367, 23.21810083100182 4.041916167664671, 20.646687939702815 4.850299401197605, 18.155765405844164 5.658682634730539, 15.268301996615563 6.467065868263473, 13.01214236581342 7.275449101796408, 11.448869897910766 8.083832335329342, 9.308337299473306 8.892215568862277, 5.75531745170332 9.70059880239521, 1.3576926303134431 10.508982035928144, 0.9084353843986851 11.317365269461078, 0.2708153124402324 12.125748502994012, 0.0 12.934131736526947, 0.593588152036465 13.74251497005988, 1.2529172068887378 14.550898203592816, 1.4352317203608331 15.359281437125748, 1.3661849633444216 16.167664670658684, 0.8585091481674514 16.976047904191617, 0.3199515437079324 17.784431137724553, 2.3809710724328514 18.592814371257486, 3.4492654454970575 19.40119760479042, 3.950829186796603 20.20958083832335, 4.738494290709546 21.017964071856287, 5.350674758140284 21.82634730538922, 8.960616691839997 22.634730538922156, 12.1162580980076 23.443113772455092, 18.534237975889994 24.251497005988025, 23.403490416472547 25.059880239520957, 27.5330417841798 25.868263473053894, 30.673968632901556 26.676646706586826, 32.644785603907664 27.48502994011976, 35.80915484352052 28.29341317365269, 41.17119292351275 29.10179640718563, 44.636554556384624 29.910179640718564, 45.52892346732181 30.718562874251496, 46.03422115513926 31.526946107784433, 46.61961867602461 32.33532934131737, 46.97515281923129 33.1437125748503, 47.00015623578479 33.952095808383234, 47.15064555915926 34.76047904191616, 47.18684707962564 35.568862275449106, 47.85924634138824 36.377245508982035, 48.76943171828154 37.18562874251497, 49.52759182175157 37.9940119760479, 50.0 38.80239520958084, 49.77862927047668 39.61077844311377, 49.65672748515243 40.4191616766467, 49.901464025517974 41.227544910179645, 49.790602584841935 42.035928143712574, 49.53722139957875 42.84431137724551, 49.43689112542933 43.65269461077844, 48.086828984130996 44.461077844311376, 48.315524600148684 45.26946107784431, 47.46087491787214 46.07784431137725, 47.85088709137791 46.886227544910184, 48.13488191907706 47.69461077844311, 48.3903894251441 48.50299401197605, 47.242439893192305 49.31137724550898, 44.698540303377165 50.119760479041915, 43.5726384021128 50.928143712574844, 42.35132737526421 51.73652694610779, 41.143897694437506 52.54491017964072, 40.802685582031735 53.35329341317365, 40.043711498072234 54.16167664670659, 39.556320760058796 54.97005988023952, 39.153987360942885 55.778443113772454, 38.594424212411205 56.58682634730538, 38.13024635152435 57.395209580838326, 37.12175739797003 58.20359281437126, 36.54539909048213 59.01197604790419, 35.52077118863477 59.82035928143713, 35.17171174669839 60.62874251497006, 34.862570725337854 61.43712574850299, 33.67113330473156 62.24550898203593, 33.40139810942496 63.053892215568865, 32.64641530410996 63.862275449101794, 29.297587947699206 64.67065868263474, 27.262213412337683 65.47904191616766, 25.398929710729874 66.2874251497006, 23.2368793780301 67.09580838323353, 21.959129260315457 67.90419161676647, 19.327505138193686 68.7125748502994, 21.288496323291632 69.52095808383233, 21.575610744652266 70.32934131736526, 21.958613294101255 71.13772455089821, 22.923085674017933 71.94610778443113, 24.031431314483136 72.75449101796407, 24.6719589559087 73.562874251497, 24.716751464449256 74.37125748502994, 24.73462990277736 75.17964071856287, 24.85900103362292 75.9880239520958, 24.60110416089461 76.79640718562875, 24.442869107737174 77.60479041916167, 24.563093761047945 78.41317365269461, 25.00289754789388 79.22155688622755, 24.992545346435406 80.02994011976048, 25.139130235591605 80.8383233532934, 25.04729774652293 81.64670658682634, 25.290028995202974 82.45508982035929, 25.69747249489228 83.26347305389221, 27.739340907979347 84.07185628742515, 29.764254304062852 84.88023952095809, 29.99474031142641 85.68862275449102, 29.937819462769344 86.49700598802396, 30.42593121727455 87.30538922155688, 32.56089505003905 88.11377245508983, 33.069723988682874 88.92215568862275, 33.20242878872445 89.73053892215569, 34.32310151943367 90.53892215568862, 33.36239333392833 91.34730538922156, 32.5414756558277 92.1556886227545, 32.085993388416135 92.96407185628742, 31.11330600647035 93.77245508982037, 30.613751953502565 94.58083832335329, 30.180596950857918 95.38922155688623, 30.336970767885273 96.19760479041915, 31.110361878667437 97.0059880239521, 31.429041894512604 97.81437125748504, 30.823002827834422 98.62275449101796, 30.47822900477043 99.43113772455091, 28.987256823979312 100.23952095808383, 27.598269773419947 101.04790419161677, 26.50010080409243 101.85628742514969, 25.23099738625612 102.66467065868264, 23.70526072835865 103.47305389221557, 22.151775399530475 104.2814371257485, 21.813897195278738 105.08982035928145, 21.87192994614839 105.89820359281437, 22.607516355353944 106.7065868263473, 22.92931552189983 107.51497005988023, 22.96216647644845 108.32335329341318, 23.346655656771325 109.13173652694611, 22.38680119104634 109.94011976047904, 23.21518370689555 110.74850299401199, 22.334881188560203 111.55688622754491, 23.4366783686104 112.36526946107784, 24.014807734657033 113.17365269461077, 24.547852483645322 113.98203592814372, 24.41582392758091 114.79041916167665, 24.098512878727142 115.59880239520957, 24.186376120759682 116.40718562874252, 24.74737906801566 117.21556886227545, 24.886329155450337 118.02395209580838, 25.659103337986732 118.83233532934132, 26.618532369858418 119.64071856287426, 27.038918638427777 120.44910179640719, 27.41191928141849 121.25748502994011, 28.00950566031129 122.06586826347306, 29.627395722860157 122.87425149700599, 30.655064307798668 123.68263473053892, 30.072553164715988 124.49101796407186, 30.28094192105757 125.2994011976048, 29.698792537007 126.10778443113773, 29.466546610722045 126.91616766467065, 29.272743819079324 127.72455089820359, 30.12590548588068 128.5329341317365, 30.365414482645097 129.34131736526948, 32.00735917600644 130.1497005988024, 32.4404817703964 130.95808383233532, 32.93511661017151 131.76646706586826, 33.248054880445494 132.5748502994012, 34.006780878777136 133.38323353293413, 34.2120626787731 134.19161676646706, 34.70004539768152" fill="none" stroke="#ff3a33" stroke-width="1.25"/>

</svg>